<?xml version="1.0" encoding="UTF-8"?>
<svg xmlns="http://www.w3.org/2000/svg" viewBox="0 0 1254 1254" role="img" aria-labelledby="title desc">
  <title id="title">Balcón del Golf - logotipo vectorizado</title>
  <desc id="desc">Versión SVG vectorizada del logotipo Balcón del Golf, con trazados en azul cobalto y terracota sobre fondo transparente.</desc>
  <g id="balcon-del-golf-logo" fill-rule="evenodd">
    <path id="azul-cobalto" fill="#0D3B82" d="M560 964L553 969L544 980L539 990L535 1005L535 1020L539 1035L546 1048L551 1054L556 1057L557 1055L560 1055L561 1053L561 988L560 987L561 973L560 969L558 970L556 969Z M403 964L393 973L388 980L383 990L379 1006L379 1020L384 1038L394 1053L403 1061L404 1054L404 971L403 970L401 972L399 971Z M895 953L890 954L884 952L825 952L825 997L819 998L819 1004L825 1005L825 1072L847 1072L847 1006L848 1005L852 1006L852 1072L858 1072L858 1006L859 1005L882 1005L883 1004L883 998L870 999L858 997L858 960L859 959L895 959Z M848 959L852 960L852 997L851 998L847 997L847 960Z M726 952L725 953L725 1066L724 1072L776 1072L776 1065L732 1065L731 1064L731 952Z M700 952L700 1072L721 1072L721 954L722 953L721 952Z M592 950L572 955L566 959L566 1065L570 1068L581 1072L607 1073L626 1066L638 1057L644 1050L652 1036L655 1027L656 1002L652 988L648 980L633 963L622 956L611 952Z M590 958L608 959L617 962L627 968L641 983L645 991L649 1007L648 1024L645 1033L639 1044L623 1059L615 1063L604 1066L588 1066L577 1063L573 1060L573 964L578 961Z M429 951L414 956L410 959L410 1066L430 1073L450 1073L459 1071L468 1067L477 1061L485 1053L494 1038L497 1028L498 1014L447 1014L446 1015L447 1021L489 1021L490 1025L484 1041L480 1047L471 1056L453 1065L432 1066L419 1062L417 1060L417 964L428 959L447 958L458 961L473 970L478 966L478 964L473 960L464 955L455 952L444 950Z M743 897L743 899L964 899L964 897Z M317 897L317 899L538 899L538 897Z M685 878L684 879L685 918L710 918L711 917L710 913L690 913L689 912L689 878Z M627 878L626 879L626 917L627 918L654 918L654 913L632 913L631 912L631 901L632 900L651 900L651 896L632 896L631 895L631 883L632 882L654 882L654 878Z M569 878L569 917L570 918L586 918L598 912L603 901L603 895L599 885L593 880L588 878Z M575 882L589 883L597 891L598 894L597 904L595 908L588 913L575 913L574 912L574 883Z M791 739L789 737L784 742L775 756L771 771L771 787L774 799L780 811L785 818L796 828L796 735Z M924 719L923 720L923 732L924 733L923 739L924 742L923 745L924 748L923 750L924 837L923 838L924 839L945 838L945 727L948 726L949 727L949 838L950 839L955 838L955 729L958 728L962 730L971 739L979 756L982 775L982 838L989 839L989 719L982 719L982 737L981 738L979 737L973 728L957 719Z M544 719L543 720L543 838L545 839L551 838L619 838L619 831L566 831L565 830L564 727L567 724L569 725L569 738L569 719Z M456 719L412 838L420 839L425 824L427 822L456 822L459 826L462 837L464 839L471 838L445 772L445 767L448 765L476 838L500 838L501 839L502 838L493 816L490 805L486 797L461 728Z M444 792L446 795L447 814L446 815L435 815L434 811L437 806L439 797Z M294 719L294 763L288 766L289 769L294 770L294 839L309 839L310 838L314 839L315 838L315 771L316 770L320 771L320 838L350 838L358 835L364 831L372 822L377 810L378 799L376 789L371 779L362 770L349 764L354 757L357 749L357 740L353 730L346 723L338 719Z M328 771L338 770L346 771L354 774L365 784L369 792L370 797L369 811L364 820L358 826L351 830L347 831L328 831L327 830L327 772Z M334 729L339 731L347 739L349 744L347 752L340 759L336 761L333 760L333 747L332 746Z M316 726L320 727L320 763L319 764L315 763L315 727Z M828 717L816 719L802 725L802 832L815 838L835 840L847 838L861 832L873 823L878 817L886 803L890 790L890 768L885 752L875 737L865 728L846 719Z M824 725L843 726L857 732L864 737L875 750L880 760L883 772L882 791L879 800L873 811L858 825L841 832L822 832L809 827L809 730Z M704 717L684 721L672 727L659 739L653 748L647 763L645 783L647 794L654 810L669 827L674 825L675 831L682 835L695 839L708 840L727 836L737 831L743 826L739 821L737 821L729 827L715 832L696 832L683 827L683 731L687 728L699 725L718 726L731 732L737 737L743 731L735 725L724 720Z M673 735L676 736L676 820L674 822L670 819L670 738Z M849 693L826 702L823 701L821 695L819 694L820 702L819 711L849 701Z M799 655L803 656L821 655L814 653L806 653Z M811 641L807 642L806 647L810 650L814 648L814 643Z M589 571L585 576L570 582L545 587L519 590L466 593L465 594L426 595L425 596L272 600L271 601L255 601L254 602L219 604L204 606L204 607L249 605L250 604L270 604L271 603L296 603L297 602L425 600L426 599L447 599L448 598L467 598L468 597L509 595L542 591L570 585L586 578L589 574Z M794 528L793 527L788 528L787 527L788 525L783 524L767 524L766 523L701 526L637 534L598 544L586 552L584 556L586 562L597 569L629 582L637 589L638 593L634 599L621 606L590 615L539 625L465 636L457 636L425 641L336 651L268 657L319 656L320 655L357 653L425 646L514 634L560 626L600 617L622 610L632 605L641 596L641 589L637 583L618 573L593 563L588 558L588 555L603 543L607 543L614 540L624 541L653 535L701 529L712 529L737 526L754 526L755 525L785 525L786 526L785 529L730 536L697 543L675 550L663 558L661 566L664 571L668 574L702 587L713 593L718 594L726 602L727 611L725 615L719 622L702 632L656 648L596 664L557 672L575 671L618 663L622 661L626 661L652 654L693 640L710 632L721 625L730 615L731 603L725 595L712 587L669 570L665 566L665 562L671 556L693 548L717 542L772 533Z M697 496L697 498L716 498L717 499L796 498L796 497L785 497L784 496Z M923 478L927 479L928 478L935 479L962 478L961 477L924 477Z M995 466L991 465L984 472L963 498L947 515L947 518L957 529L956 531L954 530L953 531L953 535L963 540L964 547L971 564L971 569L973 571L969 577L967 603L958 620L953 636L946 641L944 646L892 648L845 655L859 655L860 654L904 652L905 651L937 651L938 650L1007 651L1008 652L1024 652L1043 654L1016 649L987 647L985 644L988 610L995 581L992 557L989 547L991 546L1000 550L1005 548L1006 530L1004 523L1007 519L1007 515L1003 511L997 511L994 513L993 516L988 516L988 518L991 518L995 521L999 521L1001 524L1000 538L997 540L981 530L982 523L985 517L980 511L973 510L967 515L956 515L954 511L988 470L991 470L994 473L998 470Z M978 606L979 614L978 615L977 645L976 646L955 646L954 645L955 640L959 638L976 607Z M983 572L986 571L987 573L984 574Z M974 572L976 571L977 573L975 574Z M955 516L967 517L969 519L968 521L969 526L972 530L971 531L965 530L954 519Z M471 455L467 457L461 465L462 467L461 469L462 507L463 467L469 460L473 458L478 460L483 466L482 469L475 469L475 507L481 507L481 481L482 480L484 481L484 490L484 466L485 465L479 457L475 455Z M592 448L589 453L589 489L594 488L594 454L593 453L594 451L597 453L597 489L598 489L598 452L595 448Z M410 447L400 453L398 467L399 477L398 478L395 477L395 456L396 454L394 454L394 477L392 478L392 480L411 480L412 479L410 477Z M403 451L409 455L409 477L408 478L402 477L403 475L406 475L406 460L405 459L406 456L402 454Z M640 440L640 442L685 442L686 443L815 441L805 441L804 440L801 441L799 440Z M569 436L568 452L572 453L571 436Z M559 432L558 433L558 452L562 452L562 435Z M884 432L887 433L1025 432L977 431L976 430Z M448 511L448 513L525 513L526 514L527 551L529 532L528 497L530 495L537 496L537 511L560 506L562 522L563 492L565 490L569 490L570 491L570 504L579 505L579 534L580 536L628 526L692 519L689 514L685 513L676 505L672 505L669 507L668 511L664 511L663 508L659 506L657 500L659 499L662 503L664 503L665 497L662 491L656 487L653 487L648 493L642 488L636 488L627 497L624 509L631 517L630 520L625 519L623 514L620 512L615 512L612 515L608 513L608 510L609 509L612 510L614 506L612 499L608 496L604 496L601 502L599 501L597 496L593 493L586 495L583 499L573 500L572 499L573 487L567 483L564 483L553 488L555 494L553 504L540 506L539 499L541 498L542 501L546 500L546 483L547 482L549 483L549 499L550 436L546 430L543 430L540 433L539 440L540 448L539 450L540 457L539 482L540 485L539 489L542 491L542 495L540 496L539 492L533 491L529 487L524 491L520 492L519 491L520 489L520 436L519 434L520 433L523 436L523 485L524 485L525 475L524 431L520 428L518 428L515 431L514 435L514 450L515 451L515 492L514 494L515 495L515 507L516 506L516 495L517 494L519 495L519 509L518 510L472 510L471 509L472 507L472 469L466 469L466 507L467 509Z M467 508L470 507L471 509L468 510Z M523 495L527 496L527 509L526 510L522 509L522 496Z M558 490L561 492L561 502L560 503L557 502L557 491Z M543 435L546 434L548 439L546 440L543 437Z M505 428L503 428L503 458L504 458Z M604 437L604 435L594 427L589 432L593 429L598 433L597 435L592 434L591 435L578 435L581 437Z M393 435L402 429L394 427Z M862 426L860 431L858 451L855 462L856 470L854 473L852 485L853 500L851 502L850 508L849 542L847 549L849 576L853 587L859 593L859 601L858 602L845 602L844 601L828 601L824 599L824 592L828 588L832 578L833 547L832 546L831 518L829 516L828 492L826 488L824 464L822 455L821 455L816 480L816 490L814 494L813 514L811 519L811 529L810 530L810 546L809 547L810 577L815 589L819 592L819 599L818 600L761 600L760 601L748 601L748 602L786 602L787 603L808 603L809 604L851 606L899 611L949 619L943 616L902 607L902 600L906 597L910 588L912 577L912 565L910 557L910 534L908 529L907 504L905 501L905 489L901 468L900 468L898 477L898 483L895 495L895 503L893 509L893 519L892 520L893 526L891 531L890 556L889 557L889 582L891 590L898 600L898 605L895 607L879 604L870 604L865 602L865 592L870 588L875 573L876 545L874 529L874 510L873 505L871 503L872 492L870 472L867 466L867 451Z M383 422L379 420L375 424L379 422Z M613 413L612 414L612 483L614 497L615 490L615 422Z M504 412L537 412L538 410L536 409L516 409L515 408Z M571 389L569 391L569 408L573 409L573 394Z M952 386L954 390L973 388L989 391L1026 407L1039 409L1061 409L1029 405L1020 402L997 390L979 385Z M559 384L557 388L558 403L561 405L562 404L562 386Z M583 381L583 394L614 410L620 411L622 409L621 407L587 391L586 381L585 380Z M624 416L651 416L667 413L695 403L726 389L749 383L769 383L780 385L859 409L897 414L909 414L877 410L869 408L868 406L895 402L927 394L936 393L937 390L933 389L890 400L855 405L780 381L769 379L748 379L723 386L688 402L669 409L647 414Z M321 382L324 382L326 380L322 379Z M372 382L386 382L387 383L417 382L413 378L397 378L396 379L373 378Z M544 377L542 379L542 397L541 398L550 400L549 380L548 378Z M436 371L435 376L440 376L447 380L446 378L440 375Z M212 417L213 418L226 414L239 413L240 415L249 415L250 417L263 420L264 422L275 426L274 429L262 427L247 431L235 441L231 450L241 442L243 443L245 440L247 442L252 438L254 440L262 438L263 439L282 439L290 446L293 452L295 453L295 505L293 509L283 510L223 509L222 510L222 543L223 544L224 581L226 561L226 518L227 517L226 515L227 514L240 514L241 521L244 523L244 527L246 527L248 523L255 523L257 527L258 524L261 522L267 523L267 517L270 514L278 515L278 519L276 521L272 521L272 523L279 523L280 514L293 514L294 515L294 566L292 567L288 562L286 561L282 562L278 558L269 557L265 560L260 561L256 567L253 567L249 573L244 574L241 578L241 581L395 578L411 576L459 574L511 568L515 566L528 565L549 552L563 541L576 537L576 536L572 536L558 541L543 551L527 564L514 565L511 562L501 557L495 558L492 550L490 549L485 550L481 546L475 545L469 549L463 550L458 557L453 558L448 565L445 564L444 453L446 449L456 440L469 440L470 439L478 442L481 441L484 444L487 444L495 450L492 443L483 435L475 432L462 433L461 431L470 426L476 425L477 423L497 421L509 424L501 416L493 413L480 413L476 415L472 415L461 421L457 425L455 424L461 417L462 414L470 406L475 404L476 401L481 400L482 397L494 395L489 392L477 392L472 395L470 394L462 401L460 401L452 411L450 410L453 399L457 392L456 390L459 386L462 376L470 365L460 370L453 377L447 388L447 393L444 396L442 405L440 404L440 398L436 386L430 377L421 369L412 366L419 374L427 390L426 392L430 398L430 402L434 409L433 412L421 399L409 393L394 392L389 394L389 395L399 396L400 398L404 399L406 402L410 403L413 407L418 410L418 412L428 422L426 424L418 418L409 414L402 413L388 414L390 421L393 420L394 422L401 422L403 424L412 425L413 427L420 429L422 431L421 433L409 432L401 435L391 444L389 449L394 445L402 443L406 440L408 441L426 440L431 443L437 449L439 453L438 546L436 561L432 560L427 556L420 556L417 558L417 562L415 563L413 559L409 558L410 554L414 553L416 549L415 542L412 537L409 535L405 535L400 540L397 532L394 530L387 531L382 536L381 539L373 538L368 544L367 547L368 556L365 560L370 564L372 570L371 572L368 571L366 567L363 565L358 565L356 563L347 565L346 563L352 558L351 555L346 550L340 550L334 555L329 549L324 549L318 554L316 559L313 562L308 563L306 566L304 565L304 550L303 549L303 515L304 514L315 514L317 521L318 520L317 518L320 514L435 513L434 510L358 510L357 509L335 510L334 509L336 507L336 445L335 444L331 444L331 508L330 509L306 509L305 510L303 509L302 454L310 443L317 439L332 439L333 438L341 440L343 439L348 442L350 441L354 444L357 444L367 451L362 441L355 434L348 430L339 428L328 428L320 431L319 429L331 422L344 418L347 415L353 416L361 414L368 415L372 414L385 418L377 409L370 405L363 403L347 403L339 407L336 406L325 412L318 418L316 417L318 413L328 402L328 400L337 394L339 390L351 385L352 382L357 382L360 380L367 379L358 375L348 375L338 378L330 382L326 387L323 387L311 402L309 401L312 392L314 390L313 387L317 381L318 374L325 363L324 360L329 355L330 350L337 342L326 346L311 361L306 372L306 379L303 380L300 394L298 393L294 374L291 373L290 367L285 358L279 351L272 346L260 342L268 351L268 354L273 360L273 363L276 369L281 375L280 378L285 387L284 390L288 396L288 399L286 400L279 391L267 381L264 382L261 379L254 376L238 375L229 379L247 383L249 386L254 389L259 390L261 394L271 401L271 403L281 414L282 417L280 418L262 406L256 404L249 405L241 402L230 404L222 408Z M247 515L248 514L263 514L264 520L259 521L257 519L256 521L248 522Z M292 510L294 509L295 511L293 512Z M414 335L412 345L421 344L422 343L421 335Z M588 364L612 357L647 341L669 333L685 330L698 330L713 333L730 339L799 372L826 381L843 385L848 385L819 377L814 374L809 373L808 371L810 369L817 368L849 357L870 354L882 356L896 361L932 379L930 375L891 355L876 351L855 352L840 356L813 366L800 369L731 335L715 329L701 326L682 326L659 332Z M512 339L503 332L496 332L491 334L490 340L466 340L464 338L463 328L464 326L462 324L459 325L457 324L435 324L434 315L432 315L431 324L402 324L399 326L400 327L400 344L344 364L327 371L326 373L329 375L333 371L340 370L348 366L359 363L378 355L382 355L398 348L400 349L401 353L400 358L402 370L403 366L403 330L402 328L403 327L432 327L433 328L432 339L436 340L436 368L438 368L438 341L436 340L437 338L443 338L445 344L493 344L493 339L500 337L501 338L501 362L503 382L504 340L506 339L511 342Z M435 328L436 327L461 327L462 328L461 339L460 340L449 339L447 333L443 333L436 336Z M521 306L518 309L518 323L525 323L526 309L523 306Z M509 302L510 334L512 314L512 303Z M506 298L506 299L516 299L517 300L530 299L533 301L533 351L553 361L555 363L554 365L551 365L553 367L569 371L582 376L591 377L590 374L585 372L581 372L573 368L558 364L553 358L536 349L537 344L536 302L534 302L533 300L539 299L539 298L524 289L521 289Z M323 344L331 339L333 332L343 316L353 306L368 284L386 263L403 246L423 229L439 217L466 200L496 185L511 179L558 165L605 158L662 159L689 163L711 168L736 176L761 186L799 206L821 221L846 241L874 269L904 309L918 333L932 363L942 391L947 415L948 416L955 415L951 397L941 366L922 325L909 303L891 278L874 258L856 240L831 219L813 206L788 191L766 180L747 172L717 162L692 156L666 152L641 151L640 150L618 150L570 155L543 161L511 171L465 192L429 215L411 229L389 249L365 276L348 299L334 322Z"/>
    <path id="terracota" fill="#C66A3D" d="M980 892L974 898L981 904L987 898Z M300 892L295 897L295 899L300 904L302 904L307 898L302 892Z M464 385L471 388L475 388L479 384L481 384L497 390L499 392L500 396L497 400L492 399L498 401L501 404L503 404L508 407L509 403L513 405L518 403L523 406L525 404L530 404L532 407L533 405L535 405L537 408L540 409L540 407L537 404L523 397L469 377L467 378L467 380Z M519 400L521 399L522 401L520 402Z M336 373L334 372L333 374Z M438 370L440 374L448 378L452 374L451 372L439 371Z M399 368L394 368L393 369L394 375L397 371L399 371Z M350 367L345 370L348 370Z M377 357L365 361L353 368L353 369L357 370Z M399 350L396 350L383 355L367 368L365 371L367 372L369 370L373 370L376 374L376 372L378 370L384 370L386 375L386 371L388 368L390 368L394 364L397 365L399 364L398 362L397 363L395 362L399 356L396 355L399 352Z M389 362L391 361L392 363L390 364Z M387 359L387 361L384 363L382 367L380 367L376 370L373 369L384 358Z M392 352L393 354L387 359L386 357Z M537 346L537 348L539 350L553 357L558 363L561 362L565 365L570 365L571 367L575 367L576 369L585 371L592 375L591 371L581 367L577 364L538 345Z M397 324L397 326L398 326L401 323L404 323L407 321L409 321L410 323L414 321L416 322L421 318L423 319L421 323L424 323L429 317L431 318L430 322L431 322L430 316L433 313L440 323L442 323L443 322L442 320L444 319L448 323L451 323L453 321L455 323L457 322L463 323L466 326L468 325L466 322L442 313L423 313L400 321Z"/>
  </g>
</svg>